<svg xmlns="http://www.w3.org/2000/svg" xmlns:xlink="http://www.w3.org/1999/xlink" width="500" zoomAndPan="magnify" viewBox="0 0 375 225" height="300" preserveAspectRatio="xMidYMid meet" version="1.0"><defs><g/><clipPath id="be5e75d9d3"><rect x="0" width="352" y="0" height="83"/></clipPath></defs><g transform="matrix(1, 0, 0, 1, 14, 78)"><g clip-path="url(#be5e75d9d3)"><g fill="#ffffff" fill-opacity="0.4"><g transform="translate(4.930643, 68.465157)"><g><path d="M 20.921875 0 C 20.921875 0.175781 20.597656 0.265625 19.953125 0.265625 C 19.546875 0.265625 18.679688 0.21875 17.359375 0.125 C 16.046875 0.0390625 14.332031 0 12.21875 0 C 9.757812 0 7.898438 0.0390625 6.640625 0.125 C 5.378906 0.21875 4.539062 0.265625 4.125 0.265625 C 3.425781 0.265625 3.078125 0.144531 3.078125 -0.09375 C 3.078125 -0.207031 3.207031 -0.320312 3.46875 -0.4375 C 3.738281 -0.550781 4.019531 -0.726562 4.3125 -0.96875 C 5.300781 -1.613281 6.0625 -2.519531 6.59375 -3.6875 C 7.125 -4.863281 7.535156 -6.195312 7.828125 -7.6875 C 8.117188 -9.1875 8.289062 -10.726562 8.34375 -12.3125 C 8.40625 -13.894531 8.4375 -15.390625 8.4375 -16.796875 L 8.4375 -47.734375 C 8.4375 -48.441406 8.40625 -49.191406 8.34375 -49.984375 C 8.289062 -50.773438 8.160156 -51.519531 7.953125 -52.21875 C 7.753906 -52.925781 7.429688 -53.570312 6.984375 -54.15625 C 6.546875 -54.75 5.945312 -55.191406 5.1875 -55.484375 C 4.78125 -55.710938 4.578125 -55.914062 4.578125 -56.09375 C 4.578125 -56.382812 4.660156 -56.546875 4.828125 -56.578125 C 5.003906 -56.609375 5.390625 -56.625 5.984375 -56.625 C 6.503906 -56.625 7.265625 -56.5625 8.265625 -56.4375 C 9.265625 -56.320312 10.582031 -56.265625 12.21875 -56.265625 C 13.21875 -56.265625 14.242188 -56.320312 15.296875 -56.4375 C 16.347656 -56.5625 17.375 -56.625 18.375 -56.625 C 18.550781 -56.625 18.84375 -56.609375 19.25 -56.578125 C 19.664062 -56.546875 19.875 -56.414062 19.875 -56.1875 C 19.875 -55.769531 19.664062 -55.535156 19.25 -55.484375 C 17.726562 -55.015625 16.804688 -54.03125 16.484375 -52.53125 C 16.160156 -51.039062 16 -49.441406 16 -47.734375 L 16 -16.796875 C 16 -14.796875 16.015625 -12.914062 16.046875 -11.15625 C 16.078125 -9.40625 16.222656 -7.835938 16.484375 -6.453125 C 16.742188 -5.078125 17.140625 -3.90625 17.671875 -2.9375 C 18.203125 -1.976562 18.960938 -1.265625 19.953125 -0.796875 C 20.597656 -0.554688 20.921875 -0.289062 20.921875 0 Z M 20.921875 0 "/></g></g></g><g fill="#ffffff" fill-opacity="0.4"><g transform="translate(24.976051, 68.465157)"><g><path d="M 54.953125 -16.96875 C 54.953125 -13.445312 53.953125 -10.5 51.953125 -8.125 C 49.960938 -5.757812 47.53125 -3.84375 44.65625 -2.375 C 41.789062 -0.90625 38.742188 0.148438 35.515625 0.796875 C 32.296875 1.441406 29.425781 1.765625 26.90625 1.765625 C 24.851562 1.765625 22.695312 1.601562 20.4375 1.28125 C 18.1875 0.957031 15.929688 0.519531 13.671875 -0.03125 C 11.410156 -0.59375 9.222656 -1.253906 7.109375 -2.015625 C 5.003906 -2.785156 3.070312 -3.578125 1.3125 -4.390625 C 0.726562 -4.628906 0.4375 -4.804688 0.4375 -4.921875 C 0.4375 -5.035156 0.492188 -5.210938 0.609375 -5.453125 L 3.515625 -14.328125 C 3.628906 -14.742188 3.863281 -14.953125 4.21875 -14.953125 C 4.507812 -14.953125 4.710938 -14.71875 4.828125 -14.25 C 5.128906 -11.78125 6.097656 -9.664062 7.734375 -7.90625 C 9.378906 -6.15625 11.34375 -4.734375 13.625 -3.640625 C 15.914062 -2.554688 18.347656 -1.75 20.921875 -1.21875 C 23.503906 -0.695312 25.847656 -0.4375 27.953125 -0.4375 C 30.003906 -0.4375 32.160156 -0.65625 34.421875 -1.09375 C 36.679688 -1.539062 38.773438 -2.273438 40.703125 -3.296875 C 42.640625 -4.316406 44.238281 -5.648438 45.5 -7.296875 C 46.757812 -8.941406 47.390625 -10.992188 47.390625 -13.453125 C 47.390625 -15.390625 47.035156 -16.988281 46.328125 -18.25 C 45.628906 -19.507812 44.675781 -20.546875 43.46875 -21.359375 C 42.269531 -22.179688 40.863281 -22.84375 39.25 -23.34375 C 37.644531 -23.84375 35.929688 -24.269531 34.109375 -24.625 L 23.03125 -26.8125 C 21.21875 -27.164062 19.269531 -27.648438 17.1875 -28.265625 C 15.101562 -28.878906 13.179688 -29.726562 11.421875 -30.8125 C 9.671875 -31.894531 8.207031 -33.226562 7.03125 -34.8125 C 5.863281 -36.394531 5.28125 -38.332031 5.28125 -40.625 C 5.28125 -43.4375 5.9375 -45.925781 7.25 -48.09375 C 8.570312 -50.257812 10.359375 -52.078125 12.609375 -53.546875 C 14.867188 -55.015625 17.519531 -56.128906 20.5625 -56.890625 C 23.613281 -57.648438 26.84375 -58.03125 30.25 -58.03125 C 34.050781 -58.03125 38.003906 -57.5625 42.109375 -56.625 C 46.210938 -55.6875 49.9375 -54.335938 53.28125 -52.578125 L 50.8125 -45.375 C 50.644531 -44.90625 50.472656 -44.476562 50.296875 -44.09375 C 50.117188 -43.707031 49.972656 -43.515625 49.859375 -43.515625 C 49.734375 -43.515625 49.613281 -43.691406 49.5 -44.046875 C 49.382812 -44.398438 49.238281 -44.84375 49.0625 -45.375 C 48.414062 -47.414062 47.226562 -49.097656 45.5 -50.421875 C 43.769531 -51.742188 41.847656 -52.8125 39.734375 -53.625 C 37.628906 -54.445312 35.476562 -55.019531 33.28125 -55.34375 C 31.082031 -55.664062 29.191406 -55.828125 27.609375 -55.828125 C 26.023438 -55.828125 24.351562 -55.632812 22.59375 -55.25 C 20.832031 -54.875 19.234375 -54.242188 17.796875 -53.359375 C 16.367188 -52.484375 15.1875 -51.3125 14.25 -49.84375 C 13.3125 -48.382812 12.84375 -46.539062 12.84375 -44.3125 C 12.84375 -42.195312 13.441406 -40.476562 14.640625 -39.15625 C 15.835938 -37.84375 17.300781 -36.789062 19.03125 -36 C 20.757812 -35.207031 22.601562 -34.609375 24.5625 -34.203125 C 26.53125 -33.796875 28.28125 -33.441406 29.8125 -33.140625 L 40.1875 -31.21875 C 42.113281 -30.863281 43.96875 -30.332031 45.75 -29.625 C 47.539062 -28.925781 49.125 -28.003906 50.5 -26.859375 C 51.882812 -25.710938 52.972656 -24.332031 53.765625 -22.71875 C 54.554688 -21.113281 54.953125 -19.195312 54.953125 -16.96875 Z M 54.953125 -16.96875 "/></g></g></g><g fill="#ffffff" fill-opacity="0.4"><g transform="translate(79.221718, 68.465157)"><g><path d="M 67.265625 -0.09375 C 67.265625 0.144531 66.910156 0.265625 66.203125 0.265625 C 65.796875 0.265625 64.960938 0.21875 63.703125 0.125 C 62.441406 0.0390625 60.578125 0 58.109375 0 C 56.003906 0 54.289062 0.0390625 52.96875 0.125 C 51.65625 0.21875 50.789062 0.265625 50.375 0.265625 C 49.726562 0.265625 49.40625 0.175781 49.40625 0 C 49.40625 -0.289062 49.726562 -0.554688 50.375 -0.796875 C 51.375 -1.265625 52.132812 -1.976562 52.65625 -2.9375 C 53.1875 -3.90625 53.582031 -5.078125 53.84375 -6.453125 C 54.113281 -7.835938 54.257812 -9.40625 54.28125 -11.15625 C 54.3125 -12.914062 54.328125 -14.796875 54.328125 -16.796875 L 54.328125 -29.109375 L 15.734375 -29.109375 L 15.734375 -16.796875 C 15.734375 -14.796875 15.75 -12.914062 15.78125 -11.15625 C 15.8125 -9.40625 15.957031 -7.835938 16.21875 -6.453125 C 16.488281 -5.078125 16.882812 -3.90625 17.40625 -2.9375 C 17.9375 -1.976562 18.695312 -1.265625 19.6875 -0.796875 C 20.332031 -0.554688 20.65625 -0.289062 20.65625 0 C 20.65625 0.175781 20.332031 0.265625 19.6875 0.265625 C 19.28125 0.265625 18.414062 0.21875 17.09375 0.125 C 15.78125 0.0390625 14.066406 0 11.953125 0 C 9.492188 0 7.632812 0.0390625 6.375 0.125 C 5.113281 0.21875 4.28125 0.265625 3.875 0.265625 C 3.164062 0.265625 2.8125 0.144531 2.8125 -0.09375 C 2.8125 -0.207031 2.941406 -0.320312 3.203125 -0.4375 C 3.472656 -0.550781 3.753906 -0.726562 4.046875 -0.96875 C 5.046875 -1.613281 5.804688 -2.519531 6.328125 -3.6875 C 6.859375 -4.863281 7.269531 -6.195312 7.5625 -7.6875 C 7.851562 -9.1875 8.023438 -10.726562 8.078125 -12.3125 C 8.140625 -13.894531 8.171875 -15.390625 8.171875 -16.796875 L 8.171875 -47.734375 C 8.171875 -48.441406 8.140625 -49.191406 8.078125 -49.984375 C 8.023438 -50.773438 7.894531 -51.519531 7.6875 -52.21875 C 7.488281 -52.925781 7.164062 -53.570312 6.71875 -54.15625 C 6.28125 -54.75 5.679688 -55.191406 4.921875 -55.484375 C 4.515625 -55.710938 4.3125 -55.914062 4.3125 -56.09375 C 4.3125 -56.382812 4.394531 -56.546875 4.5625 -56.578125 C 4.738281 -56.609375 5.125 -56.625 5.71875 -56.625 C 6.238281 -56.625 7 -56.5625 8 -56.4375 C 9 -56.320312 10.316406 -56.265625 11.953125 -56.265625 C 12.953125 -56.265625 13.976562 -56.320312 15.03125 -56.4375 C 16.09375 -56.5625 17.117188 -56.625 18.109375 -56.625 C 18.285156 -56.625 18.578125 -56.609375 18.984375 -56.578125 C 19.398438 -56.546875 19.609375 -56.414062 19.609375 -56.1875 C 19.609375 -55.769531 19.398438 -55.535156 18.984375 -55.484375 C 17.460938 -55.015625 16.539062 -54.03125 16.21875 -52.53125 C 15.894531 -51.039062 15.734375 -49.441406 15.734375 -47.734375 L 15.734375 -31.296875 L 54.328125 -31.296875 L 54.328125 -47.734375 C 54.328125 -49.441406 54.164062 -51.039062 53.84375 -52.53125 C 53.53125 -54.03125 52.609375 -55.015625 51.078125 -55.484375 C 50.671875 -55.535156 50.46875 -55.769531 50.46875 -56.1875 C 50.46875 -56.414062 50.671875 -56.546875 51.078125 -56.578125 C 51.492188 -56.609375 51.789062 -56.625 51.96875 -56.625 C 52.957031 -56.625 53.976562 -56.5625 55.03125 -56.4375 C 56.09375 -56.320312 57.117188 -56.265625 58.109375 -56.265625 C 59.753906 -56.265625 61.070312 -56.320312 62.0625 -56.4375 C 63.0625 -56.5625 63.828125 -56.625 64.359375 -56.625 C 64.941406 -56.625 65.320312 -56.609375 65.5 -56.578125 C 65.675781 -56.546875 65.765625 -56.382812 65.765625 -56.09375 C 65.765625 -55.914062 65.5625 -55.710938 65.15625 -55.484375 C 64.382812 -55.191406 63.78125 -54.75 63.34375 -54.15625 C 62.90625 -53.570312 62.582031 -52.925781 62.375 -52.21875 C 62.175781 -51.519531 62.046875 -50.773438 61.984375 -49.984375 C 61.921875 -49.191406 61.890625 -48.441406 61.890625 -47.734375 L 61.890625 -16.796875 C 61.890625 -15.390625 61.921875 -13.894531 61.984375 -12.3125 C 62.046875 -10.726562 62.222656 -9.1875 62.515625 -7.6875 C 62.804688 -6.195312 63.226562 -4.863281 63.78125 -3.6875 C 64.34375 -2.519531 65.09375 -1.613281 66.03125 -0.96875 C 66.320312 -0.726562 66.597656 -0.550781 66.859375 -0.4375 C 67.128906 -0.320312 67.265625 -0.207031 67.265625 -0.09375 Z M 67.265625 -0.09375 "/></g></g></g><g fill="#ffffff" fill-opacity="0.4"><g transform="translate(144.808869, 68.465157)"><g><path d="M 64.796875 -0.09375 C 64.796875 0.03125 64.675781 0.117188 64.4375 0.171875 C 64.207031 0.234375 63.976562 0.265625 63.75 0.265625 C 63.332031 0.265625 62.65625 0.21875 61.71875 0.125 C 60.78125 0.0390625 59.082031 0 56.625 0 C 55.507812 0 54.257812 0.0390625 52.875 0.125 C 51.5 0.21875 50.519531 0.265625 49.9375 0.265625 L 36.921875 -18.734375 C 36.222656 -19.785156 35.390625 -20.925781 34.421875 -22.15625 C 33.453125 -23.382812 32.394531 -24.492188 31.25 -25.484375 C 30.113281 -26.484375 28.898438 -27.320312 27.609375 -28 C 26.316406 -28.675781 24.9375 -29.015625 23.46875 -29.015625 C 21.769531 -29.015625 20.289062 -28.585938 19.03125 -27.734375 C 17.769531 -26.890625 17.140625 -25.5 17.140625 -23.5625 L 17.140625 -13.015625 C 17.140625 -11.898438 17.179688 -10.710938 17.265625 -9.453125 C 17.359375 -8.191406 17.519531 -7.003906 17.75 -5.890625 C 17.988281 -4.773438 18.34375 -3.789062 18.8125 -2.9375 C 19.28125 -2.09375 19.867188 -1.523438 20.578125 -1.234375 C 21.867188 -0.765625 22.515625 -0.382812 22.515625 -0.09375 C 22.515625 0.144531 22.21875 0.265625 21.625 0.265625 C 20.800781 0.265625 19.742188 0.21875 18.453125 0.125 C 17.171875 0.0390625 15.472656 0 13.359375 0 C 11.253906 0 9.660156 0.0390625 8.578125 0.125 C 7.492188 0.21875 6.6875 0.265625 6.15625 0.265625 C 5.15625 0.265625 4.65625 0.144531 4.65625 -0.09375 C 4.65625 -0.320312 5.269531 -0.671875 6.5 -1.140625 C 7.03125 -1.378906 7.5 -1.921875 7.90625 -2.765625 C 8.320312 -3.617188 8.644531 -4.613281 8.875 -5.75 C 9.113281 -6.894531 9.289062 -8.113281 9.40625 -9.40625 C 9.519531 -10.695312 9.578125 -11.898438 9.578125 -13.015625 L 9.578125 -44.84375 C 9.578125 -47.882812 9.375 -50.253906 8.96875 -51.953125 C 8.5625 -53.660156 7.679688 -54.835938 6.328125 -55.484375 C 5.921875 -55.660156 5.71875 -55.894531 5.71875 -56.1875 C 5.71875 -56.476562 6.039062 -56.625 6.6875 -56.625 C 7.03125 -56.625 7.816406 -56.5625 9.046875 -56.4375 C 10.285156 -56.320312 11.722656 -56.265625 13.359375 -56.265625 C 14.359375 -56.265625 15.382812 -56.320312 16.4375 -56.4375 C 17.5 -56.5625 18.523438 -56.625 19.515625 -56.625 C 20.097656 -56.625 20.390625 -56.445312 20.390625 -56.09375 C 20.390625 -55.800781 19.984375 -55.453125 19.171875 -55.046875 C 18.285156 -54.691406 17.722656 -53.765625 17.484375 -52.265625 C 17.253906 -50.773438 17.140625 -49.265625 17.140625 -47.734375 L 17.140625 -29.71875 L 32.53125 -41.234375 C 34.113281 -42.410156 35.632812 -43.597656 37.09375 -44.796875 C 38.5625 -45.992188 39.851562 -47.117188 40.96875 -48.171875 C 42.082031 -49.234375 42.976562 -50.171875 43.65625 -50.984375 C 44.332031 -51.804688 44.671875 -52.484375 44.671875 -53.015625 C 44.671875 -53.890625 44.347656 -54.535156 43.703125 -54.953125 C 43.398438 -55.179688 43.144531 -55.351562 42.9375 -55.46875 C 42.738281 -55.59375 42.640625 -55.742188 42.640625 -55.921875 C 42.640625 -56.210938 42.785156 -56.398438 43.078125 -56.484375 C 43.367188 -56.578125 43.722656 -56.625 44.140625 -56.625 C 44.960938 -56.625 45.8125 -56.5625 46.6875 -56.4375 C 47.5625 -56.320312 48.410156 -56.265625 49.234375 -56.265625 C 50.410156 -56.265625 51.566406 -56.320312 52.703125 -56.4375 C 53.847656 -56.5625 55.007812 -56.625 56.1875 -56.625 C 58.40625 -56.625 59.515625 -56.390625 59.515625 -55.921875 C 59.515625 -55.679688 59.03125 -55.382812 58.0625 -55.03125 C 57.101562 -54.6875 56.035156 -54.25 54.859375 -53.71875 C 53.804688 -53.25 52.867188 -52.804688 52.046875 -52.390625 C 51.222656 -51.984375 50.445312 -51.5625 49.71875 -51.125 C 48.988281 -50.6875 48.238281 -50.203125 47.46875 -49.671875 C 46.707031 -49.148438 45.859375 -48.535156 44.921875 -47.828125 L 22.859375 -31.21875 L 22.859375 -31.03125 C 26.554688 -30.851562 29.578125 -30.5625 31.921875 -30.15625 C 34.265625 -29.75 36.3125 -29.046875 38.0625 -28.046875 C 39.820312 -27.046875 41.445312 -25.648438 42.9375 -23.859375 C 44.4375 -22.078125 46.15625 -19.75 48.09375 -16.875 C 48.96875 -15.59375 49.90625 -14.234375 50.90625 -12.796875 C 51.90625 -11.359375 52.972656 -9.960938 54.109375 -8.609375 C 55.253906 -7.265625 56.457031 -6.019531 57.71875 -4.875 C 58.976562 -3.738281 60.3125 -2.757812 61.71875 -1.9375 C 62.601562 -1.40625 63.335938 -1.007812 63.921875 -0.75 C 64.503906 -0.488281 64.796875 -0.269531 64.796875 -0.09375 Z M 64.796875 -0.09375 "/></g></g></g><g fill="#ffffff" fill-opacity="0.4"><g transform="translate(203.89005, 68.465157)"><g><path d="M 20.921875 0 C 20.921875 0.175781 20.597656 0.265625 19.953125 0.265625 C 19.546875 0.265625 18.679688 0.21875 17.359375 0.125 C 16.046875 0.0390625 14.332031 0 12.21875 0 C 9.757812 0 7.898438 0.0390625 6.640625 0.125 C 5.378906 0.21875 4.539062 0.265625 4.125 0.265625 C 3.425781 0.265625 3.078125 0.144531 3.078125 -0.09375 C 3.078125 -0.207031 3.207031 -0.320312 3.46875 -0.4375 C 3.738281 -0.550781 4.019531 -0.726562 4.3125 -0.96875 C 5.300781 -1.613281 6.0625 -2.519531 6.59375 -3.6875 C 7.125 -4.863281 7.535156 -6.195312 7.828125 -7.6875 C 8.117188 -9.1875 8.289062 -10.726562 8.34375 -12.3125 C 8.40625 -13.894531 8.4375 -15.390625 8.4375 -16.796875 L 8.4375 -47.734375 C 8.4375 -48.441406 8.40625 -49.191406 8.34375 -49.984375 C 8.289062 -50.773438 8.160156 -51.519531 7.953125 -52.21875 C 7.753906 -52.925781 7.429688 -53.570312 6.984375 -54.15625 C 6.546875 -54.75 5.945312 -55.191406 5.1875 -55.484375 C 4.78125 -55.710938 4.578125 -55.914062 4.578125 -56.09375 C 4.578125 -56.382812 4.660156 -56.546875 4.828125 -56.578125 C 5.003906 -56.609375 5.390625 -56.625 5.984375 -56.625 C 6.503906 -56.625 7.265625 -56.5625 8.265625 -56.4375 C 9.265625 -56.320312 10.582031 -56.265625 12.21875 -56.265625 C 13.21875 -56.265625 14.242188 -56.320312 15.296875 -56.4375 C 16.347656 -56.5625 17.375 -56.625 18.375 -56.625 C 18.550781 -56.625 18.84375 -56.609375 19.25 -56.578125 C 19.664062 -56.546875 19.875 -56.414062 19.875 -56.1875 C 19.875 -55.769531 19.664062 -55.535156 19.25 -55.484375 C 17.726562 -55.015625 16.804688 -54.03125 16.484375 -52.53125 C 16.160156 -51.039062 16 -49.441406 16 -47.734375 L 16 -16.796875 C 16 -14.796875 16.015625 -12.914062 16.046875 -11.15625 C 16.078125 -9.40625 16.222656 -7.835938 16.484375 -6.453125 C 16.742188 -5.078125 17.140625 -3.90625 17.671875 -2.9375 C 18.203125 -1.976562 18.960938 -1.265625 19.953125 -0.796875 C 20.597656 -0.554688 20.921875 -0.289062 20.921875 0 Z M 20.921875 0 "/></g></g></g><g fill="#ffffff" fill-opacity="0.4"><g transform="translate(223.935458, 68.465157)"><g><path d="M 62.078125 -56 C 62.078125 -55.769531 61.867188 -55.476562 61.453125 -55.125 C 60.109375 -54.070312 58.703125 -52.851562 57.234375 -51.46875 C 55.773438 -50.09375 54.328125 -48.6875 52.890625 -47.25 C 51.453125 -45.820312 50.085938 -44.375 48.796875 -42.90625 C 47.503906 -41.4375 46.332031 -40.085938 45.28125 -38.859375 L 33.9375 -25.0625 L 33.9375 -13.015625 C 33.9375 -9.609375 34.113281 -7.128906 34.46875 -5.578125 C 34.820312 -4.023438 35.40625 -2.835938 36.21875 -2.015625 C 36.976562 -1.378906 37.664062 -0.941406 38.28125 -0.703125 C 38.90625 -0.472656 39.21875 -0.296875 39.21875 -0.171875 C 39.21875 0.0546875 38.894531 0.171875 38.25 0.171875 C 37.71875 0.171875 36.789062 0.140625 35.46875 0.078125 C 34.15625 0.0234375 32.472656 0 30.421875 0 C 28.078125 0 26.210938 0.0234375 24.828125 0.078125 C 23.453125 0.140625 22.503906 0.171875 21.984375 0.171875 C 21.453125 0.171875 21.1875 0.0546875 21.1875 -0.171875 C 21.1875 -0.347656 21.492188 -0.539062 22.109375 -0.75 C 22.722656 -0.957031 23.351562 -1.378906 24 -2.015625 C 24.820312 -2.835938 25.421875 -4.023438 25.796875 -5.578125 C 26.179688 -7.128906 26.375 -9.609375 26.375 -13.015625 L 26.375 -24.171875 L 13.09375 -41.765625 C 12.507812 -42.585938 11.765625 -43.550781 10.859375 -44.65625 C 9.953125 -45.769531 9.015625 -46.898438 8.046875 -48.046875 C 7.078125 -49.191406 6.109375 -50.289062 5.140625 -51.34375 C 4.171875 -52.394531 3.304688 -53.273438 2.546875 -53.984375 C 2.140625 -54.335938 1.597656 -54.703125 0.921875 -55.078125 C 0.242188 -55.460938 -0.09375 -55.800781 -0.09375 -56.09375 C -0.09375 -56.445312 0.113281 -56.625 0.53125 -56.625 C 0.882812 -56.625 1.367188 -56.609375 1.984375 -56.578125 C 2.597656 -56.546875 3.269531 -56.5 4 -56.4375 C 4.726562 -56.382812 5.472656 -56.34375 6.234375 -56.3125 C 7.003906 -56.28125 7.679688 -56.265625 8.265625 -56.265625 C 9.785156 -56.265625 11.515625 -56.320312 13.453125 -56.4375 C 15.390625 -56.5625 16.882812 -56.625 17.9375 -56.625 C 18.40625 -56.625 18.640625 -56.390625 18.640625 -55.921875 C 18.640625 -55.804688 18.492188 -55.71875 18.203125 -55.65625 C 17.910156 -55.59375 17.617188 -55.503906 17.328125 -55.390625 C 16.734375 -55.210938 16.203125 -54.90625 15.734375 -54.46875 C 15.265625 -54.03125 15.03125 -53.367188 15.03125 -52.484375 C 15.03125 -51.316406 15.484375 -49.984375 16.390625 -48.484375 C 17.304688 -46.992188 18.613281 -45.222656 20.3125 -43.171875 L 32.703125 -28.21875 L 42.640625 -39.65625 C 43.222656 -40.300781 43.953125 -41.132812 44.828125 -42.15625 C 45.710938 -43.1875 46.578125 -44.285156 47.421875 -45.453125 C 48.273438 -46.628906 49.007812 -47.800781 49.625 -48.96875 C 50.25 -50.144531 50.5625 -51.203125 50.5625 -52.140625 C 50.5625 -53.128906 50.238281 -53.890625 49.59375 -54.421875 C 48.945312 -54.953125 48.328125 -55.304688 47.734375 -55.484375 C 47.617188 -55.535156 47.457031 -55.601562 47.25 -55.6875 C 47.050781 -55.78125 46.953125 -55.914062 46.953125 -56.09375 C 46.953125 -56.445312 47.097656 -56.625 47.390625 -56.625 L 47.5625 -56.625 C 49.09375 -56.625 50.367188 -56.578125 51.390625 -56.484375 C 52.410156 -56.398438 53.332031 -56.359375 54.15625 -56.359375 C 55.269531 -56.359375 56.320312 -56.398438 57.3125 -56.484375 C 58.3125 -56.578125 59.3125 -56.625 60.3125 -56.625 L 61.640625 -56.625 C 61.929688 -56.507812 62.078125 -56.300781 62.078125 -56 Z M 62.078125 -56 "/></g></g></g><g fill="#ffffff" fill-opacity="0.4"><g transform="translate(281.434109, 68.465157)"><g><path d="M 68.140625 -0.265625 C 68.140625 -0.148438 68.09375 -0.0507812 68 0.03125 C 67.914062 0.125 67.671875 0.171875 67.265625 0.171875 C 65.972656 0.171875 64.609375 0.140625 63.171875 0.078125 C 61.734375 0.0234375 60.34375 0 59 0 C 57.644531 0 56.132812 0.0234375 54.46875 0.078125 C 52.800781 0.140625 51.347656 0.171875 50.109375 0.171875 C 49.640625 0.171875 49.40625 0.0820312 49.40625 -0.09375 C 49.40625 -0.382812 49.566406 -0.570312 49.890625 -0.65625 C 50.210938 -0.75 50.609375 -0.910156 51.078125 -1.140625 C 51.492188 -1.378906 51.863281 -1.71875 52.1875 -2.15625 C 52.507812 -2.59375 52.671875 -3.3125 52.671875 -4.3125 C 52.671875 -5.476562 52.257812 -7.113281 51.4375 -9.21875 C 50.613281 -11.332031 49.613281 -13.535156 48.4375 -15.828125 L 42.734375 -27.4375 L 20.21875 -27.4375 L 14.59375 -16.796875 C 13.71875 -15.148438 12.851562 -13.285156 12 -11.203125 C 11.144531 -9.128906 10.71875 -7.242188 10.71875 -5.546875 C 10.71875 -4.773438 10.921875 -4.050781 11.328125 -3.375 C 11.742188 -2.707031 12.273438 -2.140625 12.921875 -1.671875 C 13.453125 -1.265625 13.992188 -0.984375 14.546875 -0.828125 C 15.109375 -0.679688 15.390625 -0.460938 15.390625 -0.171875 C 15.390625 0.0546875 14.945312 0.171875 14.0625 0.171875 C 13.007812 0.171875 11.96875 0.140625 10.9375 0.078125 C 9.914062 0.0234375 8.90625 0 7.90625 0 C 6.851562 0 5.785156 0.0234375 4.703125 0.078125 C 3.617188 0.140625 2.550781 0.171875 1.5 0.171875 C 1.082031 0.171875 0.710938 0.15625 0.390625 0.125 C 0.0664062 0.101562 -0.09375 -0.0234375 -0.09375 -0.265625 C -0.09375 -0.554688 0.140625 -0.832031 0.609375 -1.09375 C 1.078125 -1.363281 1.460938 -1.644531 1.765625 -1.9375 C 2.640625 -2.8125 3.515625 -3.789062 4.390625 -4.875 C 5.273438 -5.957031 6.113281 -7.097656 6.90625 -8.296875 C 7.695312 -9.503906 8.410156 -10.679688 9.046875 -11.828125 C 9.691406 -12.972656 10.28125 -14.015625 10.8125 -14.953125 L 33.9375 -57.5 C 34.113281 -57.851562 34.316406 -58.03125 34.546875 -58.03125 L 34.734375 -58.03125 C 34.847656 -58.03125 34.976562 -57.96875 35.125 -57.84375 C 35.269531 -57.726562 35.34375 -57.613281 35.34375 -57.5 L 61.28125 -7.5625 C 61.925781 -6.382812 62.734375 -5.222656 63.703125 -4.078125 C 64.671875 -2.941406 65.710938 -1.992188 66.828125 -1.234375 C 67.703125 -0.648438 68.140625 -0.328125 68.140625 -0.265625 Z M 31.921875 -48.625 L 21.28125 -29.625 L 41.84375 -29.625 Z M 31.921875 -48.625 "/></g></g></g><g fill="#000000" fill-opacity="1"><g transform="translate(1.04516, 64.579674)"><g><path d="M 20.921875 0 C 20.921875 0.175781 20.597656 0.265625 19.953125 0.265625 C 19.546875 0.265625 18.679688 0.21875 17.359375 0.125 C 16.046875 0.0390625 14.332031 0 12.21875 0 C 9.757812 0 7.898438 0.0390625 6.640625 0.125 C 5.378906 0.21875 4.539062 0.265625 4.125 0.265625 C 3.425781 0.265625 3.078125 0.144531 3.078125 -0.09375 C 3.078125 -0.207031 3.207031 -0.320312 3.46875 -0.4375 C 3.738281 -0.550781 4.019531 -0.726562 4.3125 -0.96875 C 5.300781 -1.613281 6.0625 -2.519531 6.59375 -3.6875 C 7.125 -4.863281 7.535156 -6.195312 7.828125 -7.6875 C 8.117188 -9.1875 8.289062 -10.726562 8.34375 -12.3125 C 8.40625 -13.894531 8.4375 -15.390625 8.4375 -16.796875 L 8.4375 -47.734375 C 8.4375 -48.441406 8.40625 -49.191406 8.34375 -49.984375 C 8.289062 -50.773438 8.160156 -51.519531 7.953125 -52.21875 C 7.753906 -52.925781 7.429688 -53.570312 6.984375 -54.15625 C 6.546875 -54.75 5.945312 -55.191406 5.1875 -55.484375 C 4.78125 -55.710938 4.578125 -55.914062 4.578125 -56.09375 C 4.578125 -56.382812 4.660156 -56.546875 4.828125 -56.578125 C 5.003906 -56.609375 5.390625 -56.625 5.984375 -56.625 C 6.503906 -56.625 7.265625 -56.5625 8.265625 -56.4375 C 9.265625 -56.320312 10.582031 -56.265625 12.21875 -56.265625 C 13.21875 -56.265625 14.242188 -56.320312 15.296875 -56.4375 C 16.347656 -56.5625 17.375 -56.625 18.375 -56.625 C 18.550781 -56.625 18.84375 -56.609375 19.25 -56.578125 C 19.664062 -56.546875 19.875 -56.414062 19.875 -56.1875 C 19.875 -55.769531 19.664062 -55.535156 19.25 -55.484375 C 17.726562 -55.015625 16.804688 -54.03125 16.484375 -52.53125 C 16.160156 -51.039062 16 -49.441406 16 -47.734375 L 16 -16.796875 C 16 -14.796875 16.015625 -12.914062 16.046875 -11.15625 C 16.078125 -9.40625 16.222656 -7.835938 16.484375 -6.453125 C 16.742188 -5.078125 17.140625 -3.90625 17.671875 -2.9375 C 18.203125 -1.976562 18.960938 -1.265625 19.953125 -0.796875 C 20.597656 -0.554688 20.921875 -0.289062 20.921875 0 Z M 20.921875 0 "/></g></g></g><g fill="#000000" fill-opacity="1"><g transform="translate(21.090568, 64.579674)"><g><path d="M 54.953125 -16.96875 C 54.953125 -13.445312 53.953125 -10.5 51.953125 -8.125 C 49.960938 -5.757812 47.53125 -3.84375 44.65625 -2.375 C 41.789062 -0.90625 38.742188 0.148438 35.515625 0.796875 C 32.296875 1.441406 29.425781 1.765625 26.90625 1.765625 C 24.851562 1.765625 22.695312 1.601562 20.4375 1.28125 C 18.1875 0.957031 15.929688 0.519531 13.671875 -0.03125 C 11.410156 -0.59375 9.222656 -1.253906 7.109375 -2.015625 C 5.003906 -2.785156 3.070312 -3.578125 1.3125 -4.390625 C 0.726562 -4.628906 0.4375 -4.804688 0.4375 -4.921875 C 0.4375 -5.035156 0.492188 -5.210938 0.609375 -5.453125 L 3.515625 -14.328125 C 3.628906 -14.742188 3.863281 -14.953125 4.21875 -14.953125 C 4.507812 -14.953125 4.710938 -14.71875 4.828125 -14.25 C 5.128906 -11.78125 6.097656 -9.664062 7.734375 -7.90625 C 9.378906 -6.15625 11.34375 -4.734375 13.625 -3.640625 C 15.914062 -2.554688 18.347656 -1.75 20.921875 -1.21875 C 23.503906 -0.695312 25.847656 -0.4375 27.953125 -0.4375 C 30.003906 -0.4375 32.160156 -0.65625 34.421875 -1.09375 C 36.679688 -1.539062 38.773438 -2.273438 40.703125 -3.296875 C 42.640625 -4.316406 44.238281 -5.648438 45.5 -7.296875 C 46.757812 -8.941406 47.390625 -10.992188 47.390625 -13.453125 C 47.390625 -15.390625 47.035156 -16.988281 46.328125 -18.25 C 45.628906 -19.507812 44.675781 -20.546875 43.46875 -21.359375 C 42.269531 -22.179688 40.863281 -22.84375 39.25 -23.34375 C 37.644531 -23.84375 35.929688 -24.269531 34.109375 -24.625 L 23.03125 -26.8125 C 21.21875 -27.164062 19.269531 -27.648438 17.1875 -28.265625 C 15.101562 -28.878906 13.179688 -29.726562 11.421875 -30.8125 C 9.671875 -31.894531 8.207031 -33.226562 7.03125 -34.8125 C 5.863281 -36.394531 5.28125 -38.332031 5.28125 -40.625 C 5.28125 -43.4375 5.9375 -45.925781 7.25 -48.09375 C 8.570312 -50.257812 10.359375 -52.078125 12.609375 -53.546875 C 14.867188 -55.015625 17.519531 -56.128906 20.5625 -56.890625 C 23.613281 -57.648438 26.84375 -58.03125 30.25 -58.03125 C 34.050781 -58.03125 38.003906 -57.5625 42.109375 -56.625 C 46.210938 -55.6875 49.9375 -54.335938 53.28125 -52.578125 L 50.8125 -45.375 C 50.644531 -44.90625 50.472656 -44.476562 50.296875 -44.09375 C 50.117188 -43.707031 49.972656 -43.515625 49.859375 -43.515625 C 49.734375 -43.515625 49.613281 -43.691406 49.5 -44.046875 C 49.382812 -44.398438 49.238281 -44.84375 49.0625 -45.375 C 48.414062 -47.414062 47.226562 -49.097656 45.5 -50.421875 C 43.769531 -51.742188 41.847656 -52.8125 39.734375 -53.625 C 37.628906 -54.445312 35.476562 -55.019531 33.28125 -55.34375 C 31.082031 -55.664062 29.191406 -55.828125 27.609375 -55.828125 C 26.023438 -55.828125 24.351562 -55.632812 22.59375 -55.25 C 20.832031 -54.875 19.234375 -54.242188 17.796875 -53.359375 C 16.367188 -52.484375 15.1875 -51.3125 14.25 -49.84375 C 13.3125 -48.382812 12.84375 -46.539062 12.84375 -44.3125 C 12.84375 -42.195312 13.441406 -40.476562 14.640625 -39.15625 C 15.835938 -37.84375 17.300781 -36.789062 19.03125 -36 C 20.757812 -35.207031 22.601562 -34.609375 24.5625 -34.203125 C 26.53125 -33.796875 28.28125 -33.441406 29.8125 -33.140625 L 40.1875 -31.21875 C 42.113281 -30.863281 43.96875 -30.332031 45.75 -29.625 C 47.539062 -28.925781 49.125 -28.003906 50.5 -26.859375 C 51.882812 -25.710938 52.972656 -24.332031 53.765625 -22.71875 C 54.554688 -21.113281 54.953125 -19.195312 54.953125 -16.96875 Z M 54.953125 -16.96875 "/></g></g></g><g fill="#000000" fill-opacity="1"><g transform="translate(75.336235, 64.579674)"><g><path d="M 67.265625 -0.09375 C 67.265625 0.144531 66.910156 0.265625 66.203125 0.265625 C 65.796875 0.265625 64.960938 0.21875 63.703125 0.125 C 62.441406 0.0390625 60.578125 0 58.109375 0 C 56.003906 0 54.289062 0.0390625 52.96875 0.125 C 51.65625 0.21875 50.789062 0.265625 50.375 0.265625 C 49.726562 0.265625 49.40625 0.175781 49.40625 0 C 49.40625 -0.289062 49.726562 -0.554688 50.375 -0.796875 C 51.375 -1.265625 52.132812 -1.976562 52.65625 -2.9375 C 53.1875 -3.90625 53.582031 -5.078125 53.84375 -6.453125 C 54.113281 -7.835938 54.257812 -9.40625 54.28125 -11.15625 C 54.3125 -12.914062 54.328125 -14.796875 54.328125 -16.796875 L 54.328125 -29.109375 L 15.734375 -29.109375 L 15.734375 -16.796875 C 15.734375 -14.796875 15.75 -12.914062 15.78125 -11.15625 C 15.8125 -9.40625 15.957031 -7.835938 16.21875 -6.453125 C 16.488281 -5.078125 16.882812 -3.90625 17.40625 -2.9375 C 17.9375 -1.976562 18.695312 -1.265625 19.6875 -0.796875 C 20.332031 -0.554688 20.65625 -0.289062 20.65625 0 C 20.65625 0.175781 20.332031 0.265625 19.6875 0.265625 C 19.28125 0.265625 18.414062 0.21875 17.09375 0.125 C 15.78125 0.0390625 14.066406 0 11.953125 0 C 9.492188 0 7.632812 0.0390625 6.375 0.125 C 5.113281 0.21875 4.28125 0.265625 3.875 0.265625 C 3.164062 0.265625 2.8125 0.144531 2.8125 -0.09375 C 2.8125 -0.207031 2.941406 -0.320312 3.203125 -0.4375 C 3.472656 -0.550781 3.753906 -0.726562 4.046875 -0.96875 C 5.046875 -1.613281 5.804688 -2.519531 6.328125 -3.6875 C 6.859375 -4.863281 7.269531 -6.195312 7.5625 -7.6875 C 7.851562 -9.1875 8.023438 -10.726562 8.078125 -12.3125 C 8.140625 -13.894531 8.171875 -15.390625 8.171875 -16.796875 L 8.171875 -47.734375 C 8.171875 -48.441406 8.140625 -49.191406 8.078125 -49.984375 C 8.023438 -50.773438 7.894531 -51.519531 7.6875 -52.21875 C 7.488281 -52.925781 7.164062 -53.570312 6.71875 -54.15625 C 6.28125 -54.75 5.679688 -55.191406 4.921875 -55.484375 C 4.515625 -55.710938 4.3125 -55.914062 4.3125 -56.09375 C 4.3125 -56.382812 4.394531 -56.546875 4.5625 -56.578125 C 4.738281 -56.609375 5.125 -56.625 5.71875 -56.625 C 6.238281 -56.625 7 -56.5625 8 -56.4375 C 9 -56.320312 10.316406 -56.265625 11.953125 -56.265625 C 12.953125 -56.265625 13.976562 -56.320312 15.03125 -56.4375 C 16.09375 -56.5625 17.117188 -56.625 18.109375 -56.625 C 18.285156 -56.625 18.578125 -56.609375 18.984375 -56.578125 C 19.398438 -56.546875 19.609375 -56.414062 19.609375 -56.1875 C 19.609375 -55.769531 19.398438 -55.535156 18.984375 -55.484375 C 17.460938 -55.015625 16.539062 -54.03125 16.21875 -52.53125 C 15.894531 -51.039062 15.734375 -49.441406 15.734375 -47.734375 L 15.734375 -31.296875 L 54.328125 -31.296875 L 54.328125 -47.734375 C 54.328125 -49.441406 54.164062 -51.039062 53.84375 -52.53125 C 53.53125 -54.03125 52.609375 -55.015625 51.078125 -55.484375 C 50.671875 -55.535156 50.46875 -55.769531 50.46875 -56.1875 C 50.46875 -56.414062 50.671875 -56.546875 51.078125 -56.578125 C 51.492188 -56.609375 51.789062 -56.625 51.96875 -56.625 C 52.957031 -56.625 53.976562 -56.5625 55.03125 -56.4375 C 56.09375 -56.320312 57.117188 -56.265625 58.109375 -56.265625 C 59.753906 -56.265625 61.070312 -56.320312 62.0625 -56.4375 C 63.0625 -56.5625 63.828125 -56.625 64.359375 -56.625 C 64.941406 -56.625 65.320312 -56.609375 65.5 -56.578125 C 65.675781 -56.546875 65.765625 -56.382812 65.765625 -56.09375 C 65.765625 -55.914062 65.5625 -55.710938 65.15625 -55.484375 C 64.382812 -55.191406 63.78125 -54.75 63.34375 -54.15625 C 62.90625 -53.570312 62.582031 -52.925781 62.375 -52.21875 C 62.175781 -51.519531 62.046875 -50.773438 61.984375 -49.984375 C 61.921875 -49.191406 61.890625 -48.441406 61.890625 -47.734375 L 61.890625 -16.796875 C 61.890625 -15.390625 61.921875 -13.894531 61.984375 -12.3125 C 62.046875 -10.726562 62.222656 -9.1875 62.515625 -7.6875 C 62.804688 -6.195312 63.226562 -4.863281 63.78125 -3.6875 C 64.34375 -2.519531 65.09375 -1.613281 66.03125 -0.96875 C 66.320312 -0.726562 66.597656 -0.550781 66.859375 -0.4375 C 67.128906 -0.320312 67.265625 -0.207031 67.265625 -0.09375 Z M 67.265625 -0.09375 "/></g></g></g><g fill="#000000" fill-opacity="1"><g transform="translate(140.923385, 64.579674)"><g><path d="M 64.796875 -0.09375 C 64.796875 0.03125 64.675781 0.117188 64.4375 0.171875 C 64.207031 0.234375 63.976562 0.265625 63.75 0.265625 C 63.332031 0.265625 62.65625 0.21875 61.71875 0.125 C 60.78125 0.0390625 59.082031 0 56.625 0 C 55.507812 0 54.257812 0.0390625 52.875 0.125 C 51.5 0.21875 50.519531 0.265625 49.9375 0.265625 L 36.921875 -18.734375 C 36.222656 -19.785156 35.390625 -20.925781 34.421875 -22.15625 C 33.453125 -23.382812 32.394531 -24.492188 31.25 -25.484375 C 30.113281 -26.484375 28.898438 -27.320312 27.609375 -28 C 26.316406 -28.675781 24.9375 -29.015625 23.46875 -29.015625 C 21.769531 -29.015625 20.289062 -28.585938 19.03125 -27.734375 C 17.769531 -26.890625 17.140625 -25.5 17.140625 -23.5625 L 17.140625 -13.015625 C 17.140625 -11.898438 17.179688 -10.710938 17.265625 -9.453125 C 17.359375 -8.191406 17.519531 -7.003906 17.75 -5.890625 C 17.988281 -4.773438 18.34375 -3.789062 18.8125 -2.9375 C 19.28125 -2.09375 19.867188 -1.523438 20.578125 -1.234375 C 21.867188 -0.765625 22.515625 -0.382812 22.515625 -0.09375 C 22.515625 0.144531 22.21875 0.265625 21.625 0.265625 C 20.800781 0.265625 19.742188 0.21875 18.453125 0.125 C 17.171875 0.0390625 15.472656 0 13.359375 0 C 11.253906 0 9.660156 0.0390625 8.578125 0.125 C 7.492188 0.21875 6.6875 0.265625 6.15625 0.265625 C 5.15625 0.265625 4.65625 0.144531 4.65625 -0.09375 C 4.65625 -0.320312 5.269531 -0.671875 6.5 -1.140625 C 7.03125 -1.378906 7.5 -1.921875 7.90625 -2.765625 C 8.320312 -3.617188 8.644531 -4.613281 8.875 -5.75 C 9.113281 -6.894531 9.289062 -8.113281 9.40625 -9.40625 C 9.519531 -10.695312 9.578125 -11.898438 9.578125 -13.015625 L 9.578125 -44.84375 C 9.578125 -47.882812 9.375 -50.253906 8.96875 -51.953125 C 8.5625 -53.660156 7.679688 -54.835938 6.328125 -55.484375 C 5.921875 -55.660156 5.71875 -55.894531 5.71875 -56.1875 C 5.71875 -56.476562 6.039062 -56.625 6.6875 -56.625 C 7.03125 -56.625 7.816406 -56.5625 9.046875 -56.4375 C 10.285156 -56.320312 11.722656 -56.265625 13.359375 -56.265625 C 14.359375 -56.265625 15.382812 -56.320312 16.4375 -56.4375 C 17.5 -56.5625 18.523438 -56.625 19.515625 -56.625 C 20.097656 -56.625 20.390625 -56.445312 20.390625 -56.09375 C 20.390625 -55.800781 19.984375 -55.453125 19.171875 -55.046875 C 18.285156 -54.691406 17.722656 -53.765625 17.484375 -52.265625 C 17.253906 -50.773438 17.140625 -49.265625 17.140625 -47.734375 L 17.140625 -29.71875 L 32.53125 -41.234375 C 34.113281 -42.410156 35.632812 -43.597656 37.09375 -44.796875 C 38.5625 -45.992188 39.851562 -47.117188 40.96875 -48.171875 C 42.082031 -49.234375 42.976562 -50.171875 43.65625 -50.984375 C 44.332031 -51.804688 44.671875 -52.484375 44.671875 -53.015625 C 44.671875 -53.890625 44.347656 -54.535156 43.703125 -54.953125 C 43.398438 -55.179688 43.144531 -55.351562 42.9375 -55.46875 C 42.738281 -55.59375 42.640625 -55.742188 42.640625 -55.921875 C 42.640625 -56.210938 42.785156 -56.398438 43.078125 -56.484375 C 43.367188 -56.578125 43.722656 -56.625 44.140625 -56.625 C 44.960938 -56.625 45.8125 -56.5625 46.6875 -56.4375 C 47.5625 -56.320312 48.410156 -56.265625 49.234375 -56.265625 C 50.410156 -56.265625 51.566406 -56.320312 52.703125 -56.4375 C 53.847656 -56.5625 55.007812 -56.625 56.1875 -56.625 C 58.40625 -56.625 59.515625 -56.390625 59.515625 -55.921875 C 59.515625 -55.679688 59.03125 -55.382812 58.0625 -55.03125 C 57.101562 -54.6875 56.035156 -54.25 54.859375 -53.71875 C 53.804688 -53.25 52.867188 -52.804688 52.046875 -52.390625 C 51.222656 -51.984375 50.445312 -51.5625 49.71875 -51.125 C 48.988281 -50.6875 48.238281 -50.203125 47.46875 -49.671875 C 46.707031 -49.148438 45.859375 -48.535156 44.921875 -47.828125 L 22.859375 -31.21875 L 22.859375 -31.03125 C 26.554688 -30.851562 29.578125 -30.5625 31.921875 -30.15625 C 34.265625 -29.75 36.3125 -29.046875 38.0625 -28.046875 C 39.820312 -27.046875 41.445312 -25.648438 42.9375 -23.859375 C 44.4375 -22.078125 46.15625 -19.75 48.09375 -16.875 C 48.96875 -15.59375 49.90625 -14.234375 50.90625 -12.796875 C 51.90625 -11.359375 52.972656 -9.960938 54.109375 -8.609375 C 55.253906 -7.265625 56.457031 -6.019531 57.71875 -4.875 C 58.976562 -3.738281 60.3125 -2.757812 61.71875 -1.9375 C 62.601562 -1.40625 63.335938 -1.007812 63.921875 -0.75 C 64.503906 -0.488281 64.796875 -0.269531 64.796875 -0.09375 Z M 64.796875 -0.09375 "/></g></g></g><g fill="#000000" fill-opacity="1"><g transform="translate(200.004566, 64.579674)"><g><path d="M 20.921875 0 C 20.921875 0.175781 20.597656 0.265625 19.953125 0.265625 C 19.546875 0.265625 18.679688 0.21875 17.359375 0.125 C 16.046875 0.0390625 14.332031 0 12.21875 0 C 9.757812 0 7.898438 0.0390625 6.640625 0.125 C 5.378906 0.21875 4.539062 0.265625 4.125 0.265625 C 3.425781 0.265625 3.078125 0.144531 3.078125 -0.09375 C 3.078125 -0.207031 3.207031 -0.320312 3.46875 -0.4375 C 3.738281 -0.550781 4.019531 -0.726562 4.3125 -0.96875 C 5.300781 -1.613281 6.0625 -2.519531 6.59375 -3.6875 C 7.125 -4.863281 7.535156 -6.195312 7.828125 -7.6875 C 8.117188 -9.1875 8.289062 -10.726562 8.34375 -12.3125 C 8.40625 -13.894531 8.4375 -15.390625 8.4375 -16.796875 L 8.4375 -47.734375 C 8.4375 -48.441406 8.40625 -49.191406 8.34375 -49.984375 C 8.289062 -50.773438 8.160156 -51.519531 7.953125 -52.21875 C 7.753906 -52.925781 7.429688 -53.570312 6.984375 -54.15625 C 6.546875 -54.75 5.945312 -55.191406 5.1875 -55.484375 C 4.78125 -55.710938 4.578125 -55.914062 4.578125 -56.09375 C 4.578125 -56.382812 4.660156 -56.546875 4.828125 -56.578125 C 5.003906 -56.609375 5.390625 -56.625 5.984375 -56.625 C 6.503906 -56.625 7.265625 -56.5625 8.265625 -56.4375 C 9.265625 -56.320312 10.582031 -56.265625 12.21875 -56.265625 C 13.21875 -56.265625 14.242188 -56.320312 15.296875 -56.4375 C 16.347656 -56.5625 17.375 -56.625 18.375 -56.625 C 18.550781 -56.625 18.84375 -56.609375 19.25 -56.578125 C 19.664062 -56.546875 19.875 -56.414062 19.875 -56.1875 C 19.875 -55.769531 19.664062 -55.535156 19.25 -55.484375 C 17.726562 -55.015625 16.804688 -54.03125 16.484375 -52.53125 C 16.160156 -51.039062 16 -49.441406 16 -47.734375 L 16 -16.796875 C 16 -14.796875 16.015625 -12.914062 16.046875 -11.15625 C 16.078125 -9.40625 16.222656 -7.835938 16.484375 -6.453125 C 16.742188 -5.078125 17.140625 -3.90625 17.671875 -2.9375 C 18.203125 -1.976562 18.960938 -1.265625 19.953125 -0.796875 C 20.597656 -0.554688 20.921875 -0.289062 20.921875 0 Z M 20.921875 0 "/></g></g></g><g fill="#000000" fill-opacity="1"><g transform="translate(220.049974, 64.579674)"><g><path d="M 62.078125 -56 C 62.078125 -55.769531 61.867188 -55.476562 61.453125 -55.125 C 60.109375 -54.070312 58.703125 -52.851562 57.234375 -51.46875 C 55.773438 -50.09375 54.328125 -48.6875 52.890625 -47.25 C 51.453125 -45.820312 50.085938 -44.375 48.796875 -42.90625 C 47.503906 -41.4375 46.332031 -40.085938 45.28125 -38.859375 L 33.9375 -25.0625 L 33.9375 -13.015625 C 33.9375 -9.609375 34.113281 -7.128906 34.46875 -5.578125 C 34.820312 -4.023438 35.40625 -2.835938 36.21875 -2.015625 C 36.976562 -1.378906 37.664062 -0.941406 38.28125 -0.703125 C 38.90625 -0.472656 39.21875 -0.296875 39.21875 -0.171875 C 39.21875 0.0546875 38.894531 0.171875 38.25 0.171875 C 37.71875 0.171875 36.789062 0.140625 35.46875 0.078125 C 34.15625 0.0234375 32.472656 0 30.421875 0 C 28.078125 0 26.210938 0.0234375 24.828125 0.078125 C 23.453125 0.140625 22.503906 0.171875 21.984375 0.171875 C 21.453125 0.171875 21.1875 0.0546875 21.1875 -0.171875 C 21.1875 -0.347656 21.492188 -0.539062 22.109375 -0.75 C 22.722656 -0.957031 23.351562 -1.378906 24 -2.015625 C 24.820312 -2.835938 25.421875 -4.023438 25.796875 -5.578125 C 26.179688 -7.128906 26.375 -9.609375 26.375 -13.015625 L 26.375 -24.171875 L 13.09375 -41.765625 C 12.507812 -42.585938 11.765625 -43.550781 10.859375 -44.65625 C 9.953125 -45.769531 9.015625 -46.898438 8.046875 -48.046875 C 7.078125 -49.191406 6.109375 -50.289062 5.140625 -51.34375 C 4.171875 -52.394531 3.304688 -53.273438 2.546875 -53.984375 C 2.140625 -54.335938 1.597656 -54.703125 0.921875 -55.078125 C 0.242188 -55.460938 -0.09375 -55.800781 -0.09375 -56.09375 C -0.09375 -56.445312 0.113281 -56.625 0.53125 -56.625 C 0.882812 -56.625 1.367188 -56.609375 1.984375 -56.578125 C 2.597656 -56.546875 3.269531 -56.5 4 -56.4375 C 4.726562 -56.382812 5.472656 -56.34375 6.234375 -56.3125 C 7.003906 -56.28125 7.679688 -56.265625 8.265625 -56.265625 C 9.785156 -56.265625 11.515625 -56.320312 13.453125 -56.4375 C 15.390625 -56.5625 16.882812 -56.625 17.9375 -56.625 C 18.40625 -56.625 18.640625 -56.390625 18.640625 -55.921875 C 18.640625 -55.804688 18.492188 -55.71875 18.203125 -55.65625 C 17.910156 -55.59375 17.617188 -55.503906 17.328125 -55.390625 C 16.734375 -55.210938 16.203125 -54.90625 15.734375 -54.46875 C 15.265625 -54.03125 15.03125 -53.367188 15.03125 -52.484375 C 15.03125 -51.316406 15.484375 -49.984375 16.390625 -48.484375 C 17.304688 -46.992188 18.613281 -45.222656 20.3125 -43.171875 L 32.703125 -28.21875 L 42.640625 -39.65625 C 43.222656 -40.300781 43.953125 -41.132812 44.828125 -42.15625 C 45.710938 -43.1875 46.578125 -44.285156 47.421875 -45.453125 C 48.273438 -46.628906 49.007812 -47.800781 49.625 -48.96875 C 50.25 -50.144531 50.5625 -51.203125 50.5625 -52.140625 C 50.5625 -53.128906 50.238281 -53.890625 49.59375 -54.421875 C 48.945312 -54.953125 48.328125 -55.304688 47.734375 -55.484375 C 47.617188 -55.535156 47.457031 -55.601562 47.25 -55.6875 C 47.050781 -55.78125 46.953125 -55.914062 46.953125 -56.09375 C 46.953125 -56.445312 47.097656 -56.625 47.390625 -56.625 L 47.5625 -56.625 C 49.09375 -56.625 50.367188 -56.578125 51.390625 -56.484375 C 52.410156 -56.398438 53.332031 -56.359375 54.15625 -56.359375 C 55.269531 -56.359375 56.320312 -56.398438 57.3125 -56.484375 C 58.3125 -56.578125 59.3125 -56.625 60.3125 -56.625 L 61.640625 -56.625 C 61.929688 -56.507812 62.078125 -56.300781 62.078125 -56 Z M 62.078125 -56 "/></g></g></g><g fill="#000000" fill-opacity="1"><g transform="translate(277.548626, 64.579674)"><g><path d="M 68.140625 -0.265625 C 68.140625 -0.148438 68.09375 -0.0507812 68 0.03125 C 67.914062 0.125 67.671875 0.171875 67.265625 0.171875 C 65.972656 0.171875 64.609375 0.140625 63.171875 0.078125 C 61.734375 0.0234375 60.34375 0 59 0 C 57.644531 0 56.132812 0.0234375 54.46875 0.078125 C 52.800781 0.140625 51.347656 0.171875 50.109375 0.171875 C 49.640625 0.171875 49.40625 0.0820312 49.40625 -0.09375 C 49.40625 -0.382812 49.566406 -0.570312 49.890625 -0.65625 C 50.210938 -0.75 50.609375 -0.910156 51.078125 -1.140625 C 51.492188 -1.378906 51.863281 -1.71875 52.1875 -2.15625 C 52.507812 -2.59375 52.671875 -3.3125 52.671875 -4.3125 C 52.671875 -5.476562 52.257812 -7.113281 51.4375 -9.21875 C 50.613281 -11.332031 49.613281 -13.535156 48.4375 -15.828125 L 42.734375 -27.4375 L 20.21875 -27.4375 L 14.59375 -16.796875 C 13.71875 -15.148438 12.851562 -13.285156 12 -11.203125 C 11.144531 -9.128906 10.71875 -7.242188 10.71875 -5.546875 C 10.71875 -4.773438 10.921875 -4.050781 11.328125 -3.375 C 11.742188 -2.707031 12.273438 -2.140625 12.921875 -1.671875 C 13.453125 -1.265625 13.992188 -0.984375 14.546875 -0.828125 C 15.109375 -0.679688 15.390625 -0.460938 15.390625 -0.171875 C 15.390625 0.0546875 14.945312 0.171875 14.0625 0.171875 C 13.007812 0.171875 11.96875 0.140625 10.9375 0.078125 C 9.914062 0.0234375 8.90625 0 7.90625 0 C 6.851562 0 5.785156 0.0234375 4.703125 0.078125 C 3.617188 0.140625 2.550781 0.171875 1.5 0.171875 C 1.082031 0.171875 0.710938 0.15625 0.390625 0.125 C 0.0664062 0.101562 -0.09375 -0.0234375 -0.09375 -0.265625 C -0.09375 -0.554688 0.140625 -0.832031 0.609375 -1.09375 C 1.078125 -1.363281 1.460938 -1.644531 1.765625 -1.9375 C 2.640625 -2.8125 3.515625 -3.789062 4.390625 -4.875 C 5.273438 -5.957031 6.113281 -7.097656 6.90625 -8.296875 C 7.695312 -9.503906 8.410156 -10.679688 9.046875 -11.828125 C 9.691406 -12.972656 10.28125 -14.015625 10.8125 -14.953125 L 33.9375 -57.5 C 34.113281 -57.851562 34.316406 -58.03125 34.546875 -58.03125 L 34.734375 -58.03125 C 34.847656 -58.03125 34.976562 -57.96875 35.125 -57.84375 C 35.269531 -57.726562 35.34375 -57.613281 35.34375 -57.5 L 61.28125 -7.5625 C 61.925781 -6.382812 62.734375 -5.222656 63.703125 -4.078125 C 64.671875 -2.941406 65.710938 -1.992188 66.828125 -1.234375 C 67.703125 -0.648438 68.140625 -0.328125 68.140625 -0.265625 Z M 31.921875 -48.625 L 21.28125 -29.625 L 41.84375 -29.625 Z M 31.921875 -48.625 "/></g></g></g></g></g></svg>